<svg width="48" height="48" viewBox="0 0 48 48" fill="currentColor" xmlns="http://www.w3.org/2000/svg">
<path d="M12.5 23.5H35.5V20.5H12.5V23.5ZM12.5 31.5H27.5V28.5H12.5V31.5ZM7.05005 40C6.25005 40 5.55005 39.6917 4.95005 39.075C4.35005 38.4583 4.05005 37.7667 4.05005 37V11C4.05005 10.2333 4.35005 9.54167 4.95005 8.925C5.55005 8.30833 6.25005 8 7.05005 8H21.05L24.05 11H41.05C41.8167 11 42.5084 11.3083 43.125 11.925C43.7417 12.5417 44.05 13.2333 44.05 14V37C44.05 37.7667 43.7417 38.4583 43.125 39.075C42.5084 39.6917 41.8167 40 41.05 40H7.05005ZM7.05005 11V37H41.05V14H22.8L19.8 11H7.05005ZM7.05005 11V37V11Z" />
</svg>
