<svg width="48" height="48" viewBox="0 0 48 48" fill="currentColor" xmlns="http://www.w3.org/2000/svg">
<path d="M5 42C4.2 42 3.5 41.7 2.9 41.1C2.3 40.5 2 39.8 2 39V11C2 10.2 2.3 9.5 2.9 8.9C3.5 8.3 4.2 8 5 8H43C43.8 8 44.5 8.3 45.1 8.9C45.7 9.5 46 10.2 46 11V39C46 39.8 45.7 40.5 45.1 41.1C44.5 41.7 43.8 42 43 42H5ZM5 39H43V11H5V39ZM15 34.9H33V31.7H15V34.9ZM9.1 27.65H13.45V23.35H9.1V27.65ZM17.6 27.65H21.95V23.35H17.6V27.65ZM26.05 27.65H30.4V23.35H26.05V27.65ZM34.55 27.65H38.9V23.35H34.55V27.65ZM9.1 19.3H13.45V15.05H9.1V19.3ZM17.6 19.3H21.95V15.05H17.6V19.3ZM26.05 19.3H30.4V15.05H26.05V19.3ZM34.55 19.3H38.9V15.05H34.55V19.3ZM5 39V11V39Z" />
</svg>
