<svg width="48" height="48" viewBox="0 0 48 48" fill="currentColor" xmlns="http://www.w3.org/2000/svg">
<path d="M8.35 40V37H14.85C12.7167 35.4 11.0417 33.5917 9.825 31.575C8.60833 29.5583 8 27.0833 8 24.15C8 20.8167 8.98333 17.7083 10.95 14.825C12.9167 11.9417 15.7167 9.93333 19.35 8.8V11.9C16.9833 12.7667 15 14.3167 13.4 16.55C11.8 18.7833 11 21.3167 11 24.15C11 26.2833 11.4583 28.2417 12.375 30.025C13.2917 31.8083 14.7833 33.3667 16.85 34.7V28.5H19.85V40H8.35ZM36.95 25.05C37.1167 23.25 36.7917 21.325 35.975 19.275C35.1583 17.225 33.6 15.2333 31.3 13.3V19.5H28.3V8H39.8V11H33.25C36.0167 13.5 37.875 15.95 38.825 18.35C39.775 20.75 40.15 22.9833 39.95 25.05H36.95ZM31.7 44C31.1333 44 30.6583 43.8083 30.275 43.425C29.8917 43.0417 29.7 42.5667 29.7 42V36.1C29.7 35.5333 29.8917 35.0583 30.275 34.675C30.6583 34.2917 31.1333 34.1 31.7 34.1H31.75V32.15C31.75 30.9833 32.1417 30.0083 32.925 29.225C33.7083 28.4417 34.6833 28.05 35.85 28.05C37.0167 28.05 37.9917 28.4417 38.775 29.225C39.5583 30.0083 39.95 30.9833 39.95 32.15V34.1H40C40.5667 34.1 41.0417 34.2917 41.425 34.675C41.8083 35.0583 42 35.5333 42 36.1V42C42 42.5667 41.8083 43.0417 41.425 43.425C41.0417 43.8083 40.5667 44 40 44H31.7ZM33.75 34.1H37.95V32.15C37.95 31.5167 37.7583 31.0083 37.375 30.625C36.9917 30.2417 36.4833 30.05 35.85 30.05C35.2167 30.05 34.7083 30.2417 34.325 30.625C33.9417 31.0083 33.75 31.5167 33.75 32.15V34.1Z" />
</svg>
