<svg width="48" height="48" viewBox="0 0 48 48" fill="currentColor" xmlns="http://www.w3.org/2000/svg">
<path d="M14.35 12.15C13.65 12.15 13.0583 12.3917 12.575 12.875C12.0917 13.3583 11.85 13.95 11.85 14.65C11.85 15.35 12.0917 15.9417 12.575 16.425C13.0583 16.9083 13.65 17.15 14.35 17.15C15.05 17.15 15.6417 16.9083 16.125 16.425C16.6083 15.9417 16.85 15.35 16.85 14.65C16.85 13.95 16.6083 13.3583 16.125 12.875C15.6417 12.3917 15.05 12.15 14.35 12.15ZM14.35 32.85C13.65 32.85 13.0583 33.0917 12.575 33.575C12.0917 34.0583 11.85 34.65 11.85 35.35C11.85 36.05 12.0917 36.6417 12.575 37.125C13.0583 37.6083 13.65 37.85 14.35 37.85C15.05 37.85 15.6417 37.6083 16.125 37.125C16.6083 36.6417 16.85 36.05 16.85 35.35C16.85 34.65 16.6083 34.0583 16.125 33.575C15.6417 33.0917 15.05 32.85 14.35 32.85ZM7.7 6.05H40.25C40.7833 6.05 41.2083 6.20833 41.525 6.525C41.8417 6.84167 42 7.26667 42 7.8V21.25C42 21.8167 41.8417 22.3 41.525 22.7C41.2083 23.1 40.7833 23.3 40.25 23.3H7.7C7.2 23.3 6.79167 23.1 6.475 22.7C6.15833 22.3 6 21.8167 6 21.25V7.8C6 7.26667 6.15833 6.84167 6.475 6.525C6.79167 6.20833 7.2 6.05 7.7 6.05ZM9 9.05V20.3H39V9.05H9ZM7.7 26.7H40.05C40.55 26.7 41 26.9083 41.4 27.325C41.8 27.7417 42 28.2167 42 28.75V41.95C42 42.6167 41.8 43.125 41.4 43.475C41 43.825 40.55 44 40.05 44H7.95C7.41667 44 6.95833 43.825 6.575 43.475C6.19167 43.125 6 42.6167 6 41.95V28.75C6 28.2167 6.15833 27.7417 6.475 27.325C6.79167 26.9083 7.2 26.7 7.7 26.7ZM9 29.7V41H39V29.7H9ZM9 9.05V20.3V9.05ZM9 29.7V41V29.7Z" />
</svg>
