<svg width="48" height="48" viewBox="0 0 48 48" fill="currentColor" xmlns="http://www.w3.org/2000/svg">
<path d="M24.05 40.1C19.6833 40.1 15.925 38.525 12.775 35.375C9.62497 32.225 8.04998 28.4667 8.04998 24.1V21.85L4.04998 25.85L2.09998 23.9L9.54998 16.45L17 23.9L15.05 25.85L11.05 21.85V24.1C11.05 27.6667 12.325 30.725 14.875 33.275C17.425 35.825 20.4833 37.1 24.05 37.1C25.0166 37.1 25.9333 37.0167 26.8 36.85C27.6666 36.6833 28.4833 36.4333 29.25 36.1L31.4 38.25C30.2 38.9167 28.9916 39.3917 27.775 39.675C26.5583 39.9583 25.3166 40.1 24.05 40.1ZM38.5 31.65L31.05 24.2L33.05 22.2L37 26.15V24.1C37 20.5333 35.725 17.475 33.175 14.925C30.625 12.375 27.5666 11.1 24 11.1C23.0333 11.1 22.1166 11.1917 21.25 11.375C20.3833 11.5583 19.5666 11.7833 18.8 12.05L16.65 9.9C17.85 9.23333 19.0583 8.76667 20.275 8.5C21.4916 8.23333 22.7333 8.1 24 8.1C28.3666 8.1 32.125 9.675 35.275 12.825C38.425 15.975 40 19.7333 40 24.1V26.25L44 22.25L45.95 24.2L38.5 31.65Z" />
</svg>
