<svg width="48" height="48" viewBox="0 0 48 48" fill="currentColor" xmlns="http://www.w3.org/2000/svg">
<path d="M11.1 44C9.63331 44 8.39164 43.4917 7.37498 42.475C6.35831 41.4583 5.84998 40.2167 5.84998 38.75V32.5H12.2V4L15.2 7L18.2 4L21.15 7L24.15 4L27.15 7L30.15 4L33.15 7L36.15 4L39.15 7L42.15 4V38.75C42.15 40.2167 41.6416 41.4583 40.625 42.475C39.6083 43.4917 38.3666 44 36.9 44H11.1ZM36.9 41C37.5666 41 38.1083 40.7917 38.525 40.375C38.9416 39.9583 39.15 39.4167 39.15 38.75V9H15.2V32.5H34.65V38.75C34.65 39.4167 34.8583 39.9583 35.275 40.375C35.6916 40.7917 36.2333 41 36.9 41ZM17.85 16.9V13.9H29.85V16.9H17.85ZM17.85 23.6V20.6H29.85V23.6H17.85ZM34.5 16.9C34.1 16.9 33.75 16.75 33.45 16.45C33.15 16.15 33 15.8 33 15.4C33 15 33.15 14.65 33.45 14.35C33.75 14.05 34.1 13.9 34.5 13.9C34.9 13.9 35.25 14.05 35.55 14.35C35.85 14.65 36 15 36 15.4C36 15.8 35.85 16.15 35.55 16.45C35.25 16.75 34.9 16.9 34.5 16.9ZM34.5 23.35C34.1 23.35 33.75 23.2 33.45 22.9C33.15 22.6 33 22.25 33 21.85C33 21.45 33.15 21.1 33.45 20.8C33.75 20.5 34.1 20.35 34.5 20.35C34.9 20.35 35.25 20.5 35.55 20.8C35.85 21.1 36 21.45 36 21.85C36 22.25 35.85 22.6 35.55 22.9C35.25 23.2 34.9 23.35 34.5 23.35ZM11.05 41H31.65V35.5H8.84998V38.75C8.84998 39.4167 9.05831 39.9583 9.47498 40.375C9.89164 40.7917 10.4166 41 11.05 41ZM8.84998 41V35.5V41Z" />
</svg>
