<svg width="48" height="48" viewBox="0 0 48 48" fill="currentColor" xmlns="http://www.w3.org/2000/svg">
<path d="M14 36C10.6667 36 7.83333 34.8333 5.5 32.5C3.16667 30.1667 2 27.3333 2 24C2 20.6667 3.16667 17.8333 5.5 15.5C7.83333 13.1667 10.6667 12 14 12H34C37.3333 12 40.1667 13.1667 42.5 15.5C44.8333 17.8333 46 20.6667 46 24C46 27.3333 44.8333 30.1667 42.5 32.5C40.1667 34.8333 37.3333 36 34 36H14ZM14 33H34C36.5 33 38.625 32.125 40.375 30.375C42.125 28.625 43 26.5 43 24C43 21.5 42.125 19.375 40.375 17.625C38.625 15.875 36.5 15 34 15H14C11.5 15 9.375 15.875 7.625 17.625C5.875 19.375 5 21.5 5 24C5 26.5 5.875 28.625 7.625 30.375C9.375 32.125 11.5 33 14 33ZM13.95 29.05C15.35 29.05 16.5417 28.5583 17.525 27.575C18.5083 26.5917 19 25.4 19 24C19 22.6 18.5083 21.4083 17.525 20.425C16.5417 19.4417 15.35 18.95 13.95 18.95C12.55 18.95 11.3583 19.4417 10.375 20.425C9.39167 21.4083 8.9 22.6 8.9 24C8.9 25.4 9.39167 26.5917 10.375 27.575C11.3583 28.5583 12.55 29.05 13.95 29.05Z" />
</svg>
