<svg width="48" height="48" viewBox="0 0 48 48" fill="currentColor" xmlns="http://www.w3.org/2000/svg">
<path d="M6.59998 42C5.79998 42 5.09998 41.7 4.49998 41.1C3.89998 40.5 3.59998 39.8 3.59998 39V9C3.59998 8.2 3.89998 7.5 4.49998 6.9C5.09998 6.3 5.79998 6 6.59998 6H41.4C42.2 6 42.9 6.3 43.5 6.9C44.1 7.5 44.4 8.2 44.4 9V39C44.4 39.8 44.1 40.5 43.5 41.1C42.9 41.7 42.2 42 41.4 42H6.59998ZM6.59998 39H41.4V9H6.59998V39ZM9.99998 34H20V30H9.99998V34ZM29.1 30L39 20.1L36.15 17.25L29.1 24.35L26.25 21.5L23.45 24.35L29.1 30ZM9.99998 26H20V22H9.99998V26ZM9.99998 18H20V14H9.99998V18ZM6.59998 39V9V39Z" />
</svg>
