<svg width="48" height="48" viewBox="0 0 48 48" fill="currentColor" xmlns="http://www.w3.org/2000/svg">
<path d="M9 39H39V20.25L27.75 9H9V39ZM9 42C8.16667 42 7.45833 41.7083 6.875 41.125C6.29167 40.5417 6 39.8333 6 39V9C6 8.16667 6.29167 7.45833 6.875 6.875C7.45833 6.29167 8.16667 6 9 6H29L42 19V39C42 39.8333 41.7083 40.5417 41.125 41.125C40.5417 41.7083 39.8333 42 39 42H9ZM13.95 33.45H34.05V30.45H13.95V33.45ZM13.95 25.5H34.05V22.5H13.95V25.5ZM13.95 17.55H27.75V14.55H13.95V17.55ZM9 39V9V39Z" />
</svg>
