<svg width="48" height="48" viewBox="0 0 48 48" fill="currentColor" xmlns="http://www.w3.org/2000/svg">
<path d="M14 27.4C13.0667 27.4 12.2667 27.0667 11.6 26.4C10.9333 25.7333 10.6 24.9333 10.6 24C10.6 23.0667 10.9333 22.2667 11.6 21.6C12.2667 20.9333 13.0667 20.6 14 20.6C14.9333 20.6 15.7333 20.9333 16.4 21.6C17.0667 22.2667 17.4 23.0667 17.4 24C17.4 24.9333 17.0667 25.7333 16.4 26.4C15.7333 27.0667 14.9333 27.4 14 27.4ZM14 36C10.6667 36 7.83333 34.8333 5.5 32.5C3.16667 30.1667 2 27.3333 2 24C2 20.6667 3.16667 17.8333 5.5 15.5C7.83333 13.1667 10.6667 12 14 12C16.4 12 18.5 12.5667 20.3 13.7C22.1 14.8333 23.5167 16.55 24.55 18.85H42.35L48 24.5L39.65 32.15L35.25 28.95L30.85 32.15L27.1 29.15H24.55C23.7167 31.15 22.4083 32.7917 20.625 34.075C18.8417 35.3583 16.6333 36 14 36ZM14 33C15.9333 33 17.7167 32.3583 19.35 31.075C20.9833 29.7917 22.0333 28.15 22.5 26.15H28.2L30.9 28.4L35.3 25.25L39.4 28.35L43.65 24.4L41.1 21.85H22.5C22.1 19.9833 21.1 18.375 19.5 17.025C17.9 15.675 16.0667 15 14 15C11.5 15 9.375 15.875 7.625 17.625C5.875 19.375 5 21.5 5 24C5 26.5 5.875 28.625 7.625 30.375C9.375 32.125 11.5 33 14 33Z" />
</svg>
