<svg width="48" height="48" viewBox="0 0 48 48" fill="currentColor" xmlns="http://www.w3.org/2000/svg">
<path d="M8.55 39C7.85 39 7.25 38.7583 6.75 38.275C6.25 37.7917 6 37.2167 6 36.55C6 35.85 6.25 35.25 6.75 34.75C7.25 34.25 7.85 34 8.55 34C9.21667 34 9.79167 34.25 10.275 34.75C10.7583 35.25 11 35.85 11 36.55C11 37.2167 10.7583 37.7917 10.275 38.275C9.79167 38.7583 9.21667 39 8.55 39ZM16 38V35H42V38H16ZM8.55 26.5C7.85 26.5 7.25 26.2583 6.75 25.775C6.25 25.2917 6 24.7 6 24C6 23.3 6.25 22.7083 6.75 22.225C7.25 21.7417 7.85 21.5 8.55 21.5C9.21667 21.5 9.79167 21.75 10.275 22.25C10.7583 22.75 11 23.3333 11 24C11 24.6667 10.7583 25.25 10.275 25.75C9.79167 26.25 9.21667 26.5 8.55 26.5ZM16 25.5V22.5H42V25.5H16ZM8.5 14C7.8 14 7.20833 13.7583 6.725 13.275C6.24167 12.7917 6 12.2 6 11.5C6 10.8 6.24167 10.2083 6.725 9.725C7.20833 9.24167 7.8 9 8.5 9C9.2 9 9.79167 9.24167 10.275 9.725C10.7583 10.2083 11 10.8 11 11.5C11 12.2 10.7583 12.7917 10.275 13.275C9.79167 13.7583 9.2 14 8.5 14ZM16 13V10H42V13H16Z" />
</svg>
