<svg width="48" height="48" viewBox="0 0 48 48" fill="currentColor" xmlns="http://www.w3.org/2000/svg">
<path d="M26 42.2C23.7 42.2 21.4666 41.7667 19.2999 40.9C17.1333 40.0333 15.25 38.85 13.65 37.35L15.8 35.2C17.1333 36.4333 18.6916 37.4083 20.475 38.125C22.2583 38.8417 24.1 39.2 26 39.2C30.1666 39.2 33.7416 37.7083 36.7249 34.725C39.7083 31.7417 41.2 28.1667 41.2 24C41.2 19.8333 39.7083 16.2583 36.7249 13.275C33.7416 10.2917 30.1666 8.8 26 8.8C21.8333 8.8 18.2583 10.2917 15.275 13.275C12.2916 16.2583 10.8 19.8333 10.8 24V24.9L14.3 21.4L16.4 23.5L9.29995 30.6L2.19995 23.5L4.29995 21.4L7.79995 24.9V24C7.79995 21.4667 8.27495 19.1 9.22495 16.9C10.175 14.7 11.475 12.775 13.125 11.125C14.775 9.475 16.7 8.175 18.9 7.225C21.1 6.275 23.4666 5.8 26 5.8C28.5333 5.8 30.8999 6.275 33.0999 7.225C35.2999 8.175 37.2249 9.475 38.875 11.125C40.525 12.775 41.825 14.7 42.775 16.9C43.725 19.1 44.2 21.4667 44.2 24C44.2 29.0667 42.4333 33.3667 38.9 36.9C35.3666 40.4333 31.0666 42.2 26 42.2ZM22 31.75C21.5333 31.75 21.125 31.575 20.775 31.225C20.4249 30.875 20.25 30.4667 20.25 30V24C20.25 23.5333 20.4416 23.125 20.825 22.775C21.2083 22.425 21.6833 22.25 22.25 22.25V20C22.25 18.9667 22.6166 18.0833 23.35 17.35C24.0833 16.6167 24.9666 16.25 26 16.25C27.0333 16.25 27.9166 16.6167 28.65 17.35C29.3833 18.0833 29.75 18.9667 29.75 20V22.25C30.3166 22.25 30.7916 22.425 31.1749 22.775C31.5583 23.125 31.75 23.5333 31.75 24V30C31.75 30.4667 31.575 30.875 31.225 31.225C30.875 31.575 30.4666 31.75 30 31.75H22ZM23.75 22.25H28.25V20C28.25 19.3667 28.0333 18.8333 27.6 18.4C27.1666 17.9667 26.6333 17.75 26 17.75C25.3666 17.75 24.8333 17.9667 24.4 18.4C23.9666 18.8333 23.75 19.3667 23.75 20V22.25Z" />
</svg>
