<svg width="48" height="48" viewBox="0 0 48 48" fill="currentColor" xmlns="http://www.w3.org/2000/svg">
<path d="M9 42C8.16667 42 7.45833 41.7083 6.875 41.125C6.29167 40.5417 6 39.8333 6 39V9C6 8.16667 6.29167 7.45833 6.875 6.875C7.45833 6.29167 8.16667 6 9 6H39C39.8333 6 40.5417 6.29167 41.125 6.875C41.7083 7.45833 42 8.16667 42 9V39C42 39.8333 41.7083 40.5417 41.125 41.125C40.5417 41.7083 39.8333 42 39 42H9ZM9 39H39V13H9V39ZM24 33.75C21.3333 33.75 18.95 33.0333 16.85 31.6C14.75 30.1667 13.2167 28.3 12.25 26C13.2167 23.7 14.75 21.8333 16.85 20.4C18.95 18.9667 21.3333 18.25 24 18.25C26.6667 18.25 29.05 18.9667 31.15 20.4C33.25 21.8333 34.7833 23.7 35.75 26C34.7833 28.3 33.25 30.1667 31.15 31.6C29.05 33.0333 26.6667 33.75 24 33.75ZM24 31.25C25.9 31.25 27.65 30.7833 29.25 29.85C30.85 28.9167 32.1 27.6333 33 26C32.1 24.3667 30.85 23.0833 29.25 22.15C27.65 21.2167 25.9 20.75 24 20.75C22.1 20.75 20.35 21.2167 18.75 22.15C17.15 23.0833 15.9 24.3667 15 26C15.9 27.6333 17.15 28.9167 18.75 29.85C20.35 30.7833 22.1 31.25 24 31.25ZM24 28.5C23.3 28.5 22.7083 28.2583 22.225 27.775C21.7417 27.2917 21.5 26.7 21.5 26C21.5 25.3 21.7417 24.7083 22.225 24.225C22.7083 23.7417 23.3 23.5 24 23.5C24.7 23.5 25.2917 23.7417 25.775 24.225C26.2583 24.7083 26.5 25.3 26.5 26C26.5 26.7 26.2583 27.2917 25.775 27.775C25.2917 28.2583 24.7 28.5 24 28.5Z" />
</svg>
