<svg width="48" height="48" viewBox="0 0 48 48" fill="currentColor" xmlns="http://www.w3.org/2000/svg">
<path d="M32.9 15.6V9H15.1V15.6H12.1V6H35.9V15.6H32.9ZM7 18.6H41H12.1H7ZM36.95 23.35C37.35 23.35 37.7 23.2 38 22.9C38.3 22.6 38.45 22.25 38.45 21.85C38.45 21.45 38.3 21.1 38 20.8C37.7 20.5 37.35 20.35 36.95 20.35C36.55 20.35 36.2 20.5 35.9 20.8C35.6 21.1 35.45 21.45 35.45 21.85C35.45 22.25 35.6 22.6 35.9 22.9C36.2 23.2 36.55 23.35 36.95 23.35ZM32.9 39V29.4H15.1V39H32.9ZM35.9 42H12.1V33.2H4V20.9C4 19.4 4.50833 18.1417 5.525 17.125C6.54167 16.1083 7.8 15.6 9.3 15.6H38.7C40.2 15.6 41.4583 16.1083 42.475 17.125C43.4917 18.1417 44 19.4 44 20.9V33.2H35.9V42ZM41 30.2V20.9C41 20.2333 40.7833 19.6833 40.35 19.25C39.9167 18.8167 39.3667 18.6 38.7 18.6H9.3C8.63333 18.6 8.08333 18.8167 7.65 19.25C7.21667 19.6833 7 20.2333 7 20.9V30.2H12.1V26.4H35.9V30.2H41Z" />
</svg>
