<svg width="48" height="48" viewBox="0 0 48 48" fill="currentColor" xmlns="http://www.w3.org/2000/svg">
<path d="M24 32.75L21.3 26.7L15.25 24L21.3 21.25L24 15.2L26.75 21.25L32.8 24L26.75 26.7L24 32.75ZM24.35 46C20.3167 46 16.6333 45.0583 13.3 43.175C9.96667 41.2916 7.2 38.6166 5 35.15V41.95H2V30H13.9V33H7.2C9.1 36.1666 11.55 38.625 14.55 40.375C17.55 42.125 20.8167 43 24.35 43C28.3833 43 32.0167 41.825 35.25 39.475C38.4833 37.125 40.7333 34.0333 42 30.2L44.95 30.85C43.5167 35.3833 40.9083 39.0416 37.125 41.825C33.3417 44.6083 29.0833 46 24.35 46ZM2.1 22C2.33333 19.7333 2.86667 17.5916 3.7 15.575C4.53333 13.5583 5.66667 11.6833 7.1 9.94998L9.25 12.1C8.08333 13.6 7.15 15.1833 6.45 16.85C5.75 18.5166 5.3 20.2333 5.1 22H2.1ZM12.05 9.29998L9.95 7.09998C11.75 5.63331 13.6667 4.48331 15.7 3.64998C17.7333 2.81664 19.8667 2.29998 22.1 2.09998V5.09998C20.3667 5.26664 18.6833 5.69164 17.05 6.37498C15.4167 7.05831 13.75 8.03331 12.05 9.29998ZM35.95 9.29998C34.45 8.09998 32.8667 7.14164 31.2 6.42498C29.5333 5.70831 27.8 5.26664 26 5.09998V2.09998C28.2667 2.29998 30.4083 2.81664 32.425 3.64998C34.4417 4.48331 36.3167 5.63331 38.05 7.09998L35.95 9.29998ZM42.9 22C42.7333 20.3 42.2667 18.5833 41.5 16.85C40.7333 15.1166 39.75 13.5 38.55 12L40.65 9.79998C42.1833 11.6 43.4 13.5416 44.3 15.625C45.2 17.7083 45.7333 19.8333 45.9 22H42.9Z" />
</svg>
