<svg width="48" height="48" viewBox="0 0 48 48" fill="currentColor" xmlns="http://www.w3.org/2000/svg">
<path d="M14 38V35H28.45C30.7833 35 32.7917 34.225 34.475 32.675C36.1583 31.125 37 29.2 37 26.9C37 24.6 36.1583 22.675 34.475 21.125C32.7917 19.575 30.7833 18.8 28.45 18.8H13.7L19.4 24.5L17.3 26.6L8 17.3L17.3 8L19.4 10.1L13.7 15.8H28.4C31.5667 15.8 34.2917 16.8667 36.575 19C38.8583 21.1333 40 23.7667 40 26.9C40 30.0333 38.8583 32.6667 36.575 34.8C34.2917 36.9333 31.5667 38 28.4 38H14Z" />
</svg>
