<svg width="48" height="48" viewBox="0 0 48 48" fill="currentColor" xmlns="http://www.w3.org/2000/svg">
<path d="M22.05 23C19.95 23 18.1667 22.2667 16.7 20.8C15.2333 19.3333 14.5 17.5667 14.5 15.5C14.5 13.4 15.2333 11.625 16.7 10.175C18.1667 8.725 19.9333 8 22 8C24.1 8 25.875 8.725 27.325 10.175C28.775 11.625 29.5 13.3833 29.5 15.45C29.5 17.55 28.775 19.3333 27.325 20.8C25.875 22.2667 24.1167 23 22.05 23ZM22 20C23.2667 20 24.3333 19.5583 25.2 18.675C26.0667 17.7917 26.5 16.7333 26.5 15.5C26.5 14.2333 26.0667 13.1667 25.2 12.3C24.3333 11.4333 23.2833 11 22.05 11C20.7833 11 19.7083 11.4333 18.825 12.3C17.9417 13.1667 17.5 14.2167 17.5 15.45C17.5 16.7167 17.9417 17.7917 18.825 18.675C19.7083 19.5583 20.7667 20 22 20ZM44.9 47L37.9 40C37.1333 40.5667 36.3417 40.9583 35.525 41.175C34.7083 41.3917 33.8667 41.5 33 41.5C30.6333 41.5 28.625 40.675 26.975 39.025C25.325 37.375 24.5 35.3667 24.5 33C24.5 30.6333 25.325 28.625 26.975 26.975C28.625 25.325 30.6333 24.5 33 24.5C35.3667 24.5 37.375 25.325 39.025 26.975C40.675 28.625 41.5 30.6333 41.5 33C41.5 33.8667 41.3917 34.7083 41.175 35.525C40.9583 36.3417 40.5667 37.1333 40 37.9L47 44.9L44.9 47ZM33 38.5C34.5667 38.5 35.875 37.975 36.925 36.925C37.975 35.875 38.5 34.5667 38.5 33C38.5 31.4333 37.975 30.125 36.925 29.075C35.875 28.025 34.5667 27.5 33 27.5C31.4333 27.5 30.125 28.025 29.075 29.075C28.025 30.125 27.5 31.4333 27.5 33C27.5 34.5667 28.025 35.875 29.075 36.925C30.125 37.975 31.4333 38.5 33 38.5ZM6 40V35.3C6 34.0667 6.29167 33.0167 6.875 32.15C7.45833 31.2833 8.3 30.5667 9.4 30C10.9667 29.2333 13.0083 28.5083 15.525 27.825C18.0417 27.1417 20.6 26.8833 23.2 27.05C22.9333 27.4833 22.6833 27.9583 22.45 28.475C22.2167 28.9917 22.0333 29.5 21.9 30C19.3 29.9667 17.0333 30.275 15.1 30.925C13.1667 31.575 11.6667 32.1667 10.6 32.7C10.1333 32.9667 9.75 33.325 9.45 33.775C9.15 34.225 9 34.7333 9 35.3V37H21.9C22.2667 37.5667 22.6 38.0917 22.9 38.575C23.2 39.0583 23.5333 39.5333 23.9 40H6Z" />
</svg>
