<svg width="48" height="48" viewBox="0 0 48 48" fill="currentColor" xmlns="http://www.w3.org/2000/svg">
<path d="M4 38V35H24V38H4ZM4 27.5V24.5H14V27.5H4ZM4 17V14H14V17H4ZM41.9 38L33.9 30C33.0333 30.6667 32.1 31.1667 31.1 31.5C30.1 31.8333 29.0667 32 28 32C25.2333 32 22.875 31.025 20.925 29.075C18.975 27.125 18 24.7667 18 22C18 19.2333 18.975 16.875 20.925 14.925C22.875 12.975 25.2333 12 28 12C30.7667 12 33.125 12.975 35.075 14.925C37.025 16.875 38 19.2333 38 22C38 23.0667 37.8333 24.1 37.5 25.1C37.1667 26.1 36.6667 27.0333 36 27.9L44 35.9L41.9 38ZM28 29C29.9333 29 31.5833 28.3167 32.95 26.95C34.3167 25.5833 35 23.9333 35 22C35 20.0667 34.3167 18.4167 32.95 17.05C31.5833 15.6833 29.9333 15 28 15C26.0667 15 24.4167 15.6833 23.05 17.05C21.6833 18.4167 21 20.0667 21 22C21 23.9333 21.6833 25.5833 23.05 26.95C24.4167 28.3167 26.0667 29 28 29Z" />
</svg>
