<svg width="48" height="48" viewBox="0 0 48 48" fill="currentColor" xmlns="http://www.w3.org/2000/svg">
<path d="M18.7 30.35L24 26.45L29.15 30.35L27 24.05L32.3 20.25H25.9L24 14L22.1 20.25H15.7L20.9 24.05L18.7 30.35ZM24 43.95C19.3333 42.7833 15.5 40.075 12.5 35.825C9.5 31.575 8 26.9167 8 21.85V9.95L24 3.95L40 9.95V21.85C40 26.9167 38.5 31.575 35.5 35.825C32.5 40.075 28.6667 42.7833 24 43.95ZM24 40.85C27.8333 39.5833 30.9583 37.1917 33.375 33.675C35.7917 30.1583 37 26.2167 37 21.85V12.05L24 7.15L11 12.05V21.85C11 26.2167 12.2083 30.1583 14.625 33.675C17.0417 37.1917 20.1667 39.5833 24 40.85Z" />
</svg>
